<mxfile host="app.diagrams.net" modified="2022-06-21T09:05:24.680Z" agent="5.0 (Windows NT 10.0; Win64; x64) AppleWebKit/537.36 (KHTML, like Gecko) Chrome/102.0.5005.63 Safari/537.36 Edg/102.0.1245.39" etag="qpQVtxj28JHuBPz8TUmN" version="20.0.1" type="github">
  <diagram id="IJDsXqmy4gCI-NuARtEF" name="Page-1">
    <mxGraphModel dx="2074" dy="706" grid="1" gridSize="10" guides="1" tooltips="1" connect="1" arrows="1" fold="1" page="1" pageScale="1" pageWidth="827" pageHeight="1169" math="0" shadow="0">
      <root>
        <mxCell id="0" />
        <mxCell id="1" parent="0" />
        <mxCell id="cIAghADMtErcX50ljT2k-3" value="" style="triangle;whiteSpace=wrap;html=1;rotation=90;" vertex="1" parent="1">
          <mxGeometry x="250.38" y="200" width="60" height="80" as="geometry" />
        </mxCell>
        <mxCell id="cIAghADMtErcX50ljT2k-4" value="" style="triangle;whiteSpace=wrap;html=1;rotation=90;fontStyle=1" vertex="1" parent="1">
          <mxGeometry x="440.13" y="200" width="60" height="80" as="geometry" />
        </mxCell>
        <mxCell id="cIAghADMtErcX50ljT2k-5" value="" style="shape=trapezoid;perimeter=trapezoidPerimeter;whiteSpace=wrap;html=1;fixedSize=1;rotation=-180;" vertex="1" parent="1">
          <mxGeometry x="170.25" y="89.13" width="220.26" height="60" as="geometry" />
        </mxCell>
        <mxCell id="cIAghADMtErcX50ljT2k-6" value="" style="shape=trapezoid;perimeter=trapezoidPerimeter;whiteSpace=wrap;html=1;fixedSize=1;rotation=-180;" vertex="1" parent="1">
          <mxGeometry x="360" y="90" width="220.26" height="60" as="geometry" />
        </mxCell>
        <mxCell id="cIAghADMtErcX50ljT2k-9" value="T2" style="whiteSpace=wrap;html=1;rounded=1;arcSize=50;align=center;verticalAlign=middle;strokeWidth=1;autosize=1;spacing=4;treeFolding=1;treeMoving=1;newEdgeStyle={&quot;edgeStyle&quot;:&quot;entityRelationEdgeStyle&quot;,&quot;startArrow&quot;:&quot;none&quot;,&quot;endArrow&quot;:&quot;none&quot;,&quot;segment&quot;:10,&quot;curved&quot;:1};" vertex="1" parent="1">
          <mxGeometry x="-49" y="81" width="50" height="30" as="geometry" />
        </mxCell>
        <mxCell id="cIAghADMtErcX50ljT2k-10" value="" style="edgeStyle=entityRelationEdgeStyle;startArrow=none;endArrow=none;segment=10;curved=1;rounded=0;exitX=0;exitY=1;exitDx=0;exitDy=0;" edge="1" target="cIAghADMtErcX50ljT2k-9" parent="1" source="cIAghADMtErcX50ljT2k-7">
          <mxGeometry relative="1" as="geometry">
            <mxPoint x="2" y="30" as="sourcePoint" />
          </mxGeometry>
        </mxCell>
        <mxCell id="cIAghADMtErcX50ljT2k-11" value="T1" style="whiteSpace=wrap;html=1;rounded=1;arcSize=50;align=center;verticalAlign=middle;strokeWidth=1;autosize=1;spacing=4;treeFolding=1;treeMoving=1;newEdgeStyle={&quot;edgeStyle&quot;:&quot;entityRelationEdgeStyle&quot;,&quot;startArrow&quot;:&quot;none&quot;,&quot;endArrow&quot;:&quot;none&quot;,&quot;segment&quot;:10,&quot;curved&quot;:1};" vertex="1" parent="1">
          <mxGeometry x="-50" y="120" width="50" height="30" as="geometry" />
        </mxCell>
        <mxCell id="cIAghADMtErcX50ljT2k-12" value="" style="edgeStyle=entityRelationEdgeStyle;startArrow=none;endArrow=none;segment=10;curved=1;rounded=0;exitX=0;exitY=0.5;exitDx=0;exitDy=0;" edge="1" target="cIAghADMtErcX50ljT2k-11" parent="1" source="cIAghADMtErcX50ljT2k-8">
          <mxGeometry relative="1" as="geometry">
            <mxPoint x="-112" y="214" as="sourcePoint" />
          </mxGeometry>
        </mxCell>
        <mxCell id="cIAghADMtErcX50ljT2k-13" value="" style="group" vertex="1" connectable="0" parent="1">
          <mxGeometry x="60" y="20" width="130" height="50" as="geometry" />
        </mxCell>
        <mxCell id="cIAghADMtErcX50ljT2k-1" value="Вагон/локомотив" style="shape=delay;whiteSpace=wrap;html=1;" vertex="1" parent="cIAghADMtErcX50ljT2k-13">
          <mxGeometry width="130" height="40" as="geometry" />
        </mxCell>
        <mxCell id="cIAghADMtErcX50ljT2k-7" value="" style="rounded=0;whiteSpace=wrap;html=1;" vertex="1" parent="cIAghADMtErcX50ljT2k-13">
          <mxGeometry y="40" width="40" height="10" as="geometry" />
        </mxCell>
        <mxCell id="cIAghADMtErcX50ljT2k-8" value="" style="rounded=0;whiteSpace=wrap;html=1;" vertex="1" parent="cIAghADMtErcX50ljT2k-13">
          <mxGeometry x="70.25" y="40" width="40" height="10" as="geometry" />
        </mxCell>
        <mxCell id="cIAghADMtErcX50ljT2k-14" value="A1" style="text;strokeColor=none;fillColor=none;html=1;fontSize=24;fontStyle=1;verticalAlign=middle;align=center;" vertex="1" parent="1">
          <mxGeometry x="230" y="280" width="100" height="40" as="geometry" />
        </mxCell>
        <mxCell id="cIAghADMtErcX50ljT2k-15" value="A2" style="text;strokeColor=none;fillColor=none;html=1;fontSize=24;fontStyle=1;verticalAlign=middle;align=center;" vertex="1" parent="1">
          <mxGeometry x="421.13" y="280" width="100" height="40" as="geometry" />
        </mxCell>
        <mxCell id="cIAghADMtErcX50ljT2k-16" value="" style="shape=singleArrow;whiteSpace=wrap;html=1;" vertex="1" parent="1">
          <mxGeometry x="210.38" y="15" width="100" height="60" as="geometry" />
        </mxCell>
        <mxCell id="cIAghADMtErcX50ljT2k-17" value="T1 / A1 / t1&lt;br&gt;T1 / A1 / t2&lt;br&gt;T1 / A1 / t3&lt;br&gt;T1 / A1 / t4&lt;br&gt;T2 / A1 / t5&lt;br&gt;&amp;nbsp;T1 / A2 / t6&lt;br&gt;T2 / A1 / t7&lt;br&gt;T1 / A2 / t8&lt;br&gt;T2 / A2 / t9&lt;br&gt;T2 / A2 / t10" style="shape=ext;double=1;rounded=0;whiteSpace=wrap;html=1;" vertex="1" parent="1">
          <mxGeometry x="-169" y="510" width="120" height="200" as="geometry" />
        </mxCell>
        <mxCell id="cIAghADMtErcX50ljT2k-19" value="Embedded app" style="text;strokeColor=none;fillColor=none;html=1;fontSize=24;fontStyle=1;verticalAlign=middle;align=center;" vertex="1" parent="1">
          <mxGeometry x="50" y="360" width="210" height="40" as="geometry" />
        </mxCell>
        <mxCell id="cIAghADMtErcX50ljT2k-20" value="" style="shape=singleArrow;whiteSpace=wrap;html=1;" vertex="1" parent="1">
          <mxGeometry x="-40" y="560" width="60" height="60" as="geometry" />
        </mxCell>
        <mxCell id="cIAghADMtErcX50ljT2k-21" value="Отбрасываются повторные чтения меток в течение заданного периода" style="shape=ext;double=1;rounded=0;whiteSpace=wrap;html=1;" vertex="1" parent="1">
          <mxGeometry x="60" y="400" width="190" height="80" as="geometry" />
        </mxCell>
        <mxCell id="cIAghADMtErcX50ljT2k-22" value="T1 / A1 / t1&lt;br&gt;T2 / A1 / t5" style="shape=ext;double=1;rounded=0;whiteSpace=wrap;html=1;" vertex="1" parent="1">
          <mxGeometry x="80" y="510" width="120" height="200" as="geometry" />
        </mxCell>
        <mxCell id="cIAghADMtErcX50ljT2k-23" value="IoT" style="text;strokeColor=none;fillColor=none;html=1;fontSize=24;fontStyle=1;verticalAlign=middle;align=center;" vertex="1" parent="1">
          <mxGeometry x="290.13" y="360" width="210" height="40" as="geometry" />
        </mxCell>
        <mxCell id="cIAghADMtErcX50ljT2k-24" value="Обогащаем локациями и объектами" style="shape=ext;double=1;rounded=0;whiteSpace=wrap;html=1;" vertex="1" parent="1">
          <mxGeometry x="300.13" y="400" width="190" height="80" as="geometry" />
        </mxCell>
        <mxCell id="cIAghADMtErcX50ljT2k-25" value="Car1 / Loc1 / t1&lt;br&gt;Car1 / Loc1 / t5" style="shape=ext;double=1;rounded=0;whiteSpace=wrap;html=1;" vertex="1" parent="1">
          <mxGeometry x="335.13" y="510" width="120" height="200" as="geometry" />
        </mxCell>
        <mxCell id="cIAghADMtErcX50ljT2k-26" value="Служебная процедура:&lt;br&gt;проверяем, что все метки читаются" style="shape=ext;double=1;rounded=0;whiteSpace=wrap;html=1;" vertex="1" parent="1">
          <mxGeometry x="300.13" y="840" width="190" height="80" as="geometry" />
        </mxCell>
        <mxCell id="cIAghADMtErcX50ljT2k-27" value="Car1(T1) &amp;amp;&amp;amp; Car1(T2)" style="shape=ext;double=1;rounded=0;whiteSpace=wrap;html=1;" vertex="1" parent="1">
          <mxGeometry x="317.7" y="950" width="154.87" height="110" as="geometry" />
        </mxCell>
        <mxCell id="cIAghADMtErcX50ljT2k-29" value="" style="shape=singleArrow;whiteSpace=wrap;html=1;" vertex="1" parent="1">
          <mxGeometry x="240.13" y="560" width="60" height="60" as="geometry" />
        </mxCell>
        <mxCell id="cIAghADMtErcX50ljT2k-30" value="" style="shape=singleArrow;whiteSpace=wrap;html=1;rotation=90;" vertex="1" parent="1">
          <mxGeometry x="350.13" y="737.66" width="90" height="60" as="geometry" />
        </mxCell>
        <mxCell id="cIAghADMtErcX50ljT2k-31" value="&lt;div style=&quot;text-align: left;&quot;&gt;&lt;ol&gt;&lt;li&gt;Определение пройденного объектом расстояния от последнего момента, когда этот объект видели.&lt;/li&gt;&lt;li&gt;Регистрация в журнале выполнения маршрута&lt;/li&gt;&lt;li&gt;Определение пройденного расстояния с грузом&lt;/li&gt;&lt;/ol&gt;&lt;/div&gt;" style="shape=ext;double=1;rounded=0;whiteSpace=wrap;html=1;" vertex="1" parent="1">
          <mxGeometry x="590" y="400" width="190" height="210" as="geometry" />
        </mxCell>
        <mxCell id="cIAghADMtErcX50ljT2k-32" value="Tracking" style="text;strokeColor=none;fillColor=none;html=1;fontSize=24;fontStyle=1;verticalAlign=middle;align=center;" vertex="1" parent="1">
          <mxGeometry x="580.26" y="350" width="210" height="40" as="geometry" />
        </mxCell>
        <mxCell id="cIAghADMtErcX50ljT2k-33" value="" style="shape=singleArrow;whiteSpace=wrap;html=1;rotation=-15;" vertex="1" parent="1">
          <mxGeometry x="490.13" y="525" width="60" height="60" as="geometry" />
        </mxCell>
        <mxCell id="cIAghADMtErcX50ljT2k-35" value="&lt;div style=&quot;text-align: left;&quot;&gt;&lt;ol&gt;&lt;li&gt;Регистрация в журнале показателей оборудования (пробег)&lt;/li&gt;&lt;li&gt;Проверка на выполнение условий проведение обслуживания&amp;nbsp;&lt;/li&gt;&lt;/ol&gt;&lt;/div&gt;" style="shape=ext;double=1;rounded=0;whiteSpace=wrap;html=1;" vertex="1" parent="1">
          <mxGeometry x="879.74" y="400" width="190" height="210" as="geometry" />
        </mxCell>
        <mxCell id="cIAghADMtErcX50ljT2k-36" value="ТОиР" style="text;strokeColor=none;fillColor=none;html=1;fontSize=24;fontStyle=1;verticalAlign=middle;align=center;" vertex="1" parent="1">
          <mxGeometry x="870" y="350" width="210" height="40" as="geometry" />
        </mxCell>
        <mxCell id="cIAghADMtErcX50ljT2k-37" value="" style="shape=singleArrow;whiteSpace=wrap;html=1;" vertex="1" parent="1">
          <mxGeometry x="800" y="475" width="60" height="60" as="geometry" />
        </mxCell>
      </root>
    </mxGraphModel>
  </diagram>
</mxfile>
